#!OML:ASF E:/inclinewalkrobotboard/Project1/Captureday1/Session1/subject1.ASF
:FULLY-SPECIFIED
:DEGREES
188
root 0 0 0 45.02265094713115 -47.1367656718145 -18.512192975964
lowerback -6.505401820009321 3.6037504807973773 -0.4818302080497536
upperback -13.443882221417127 4.3118427578029905 -0.07905355638623579
thorax -11.036814852958294 2.1123112285775436 0.6808883242715114
lowerneck -11.434619275541662 6.759138678539768 4.437183535194873
upperneck 18.190722684099097 7.228138770147318 7.2792793957344735
head 7.640293162491523 4.225444576104767 2.161126191666181
rclavicle 9.06852721457774E-16 -1.824237335783885E-15
rhumerus 8.018923928550892 -22.4741735596984 -48.49569701851932
rradius 27.90195409789579
rwrist 21.339400304378202
rhand 0.8644902594409931 7.335643456751051
rfingers 7.125020000000029
rthumb 26.48143591474099 -19.71201855152098
lclavicle 1.4155624748763691E-15 -9.301360493570508E-16
lhumerus -10.49083795730221 3.951863579209025 51.22382572870078
lradius 35.57340785578429
lwrist -7.896271371249288
lhand -1.7630750383576324 23.344251187244836
lfingers 7.125019999999976
lthumb 23.518011693599092 50.519943460650936
rfemur 59.017438703203 -82.02432942476757 -56.20989880018392
rtibia 40.213264029778045
rfoot -18.42983793474416 -17.986168720818686
rtoes 21.6438732574099
lfemur -44.80182064099832 8.243525275459694 -27.134589913326828
ltibia 44.06964976621515
lfoot -22.792544776037168 14.93910568727308
ltoes 10.904419540826723
189
root 0 0 0 45.01385444749493 -47.127718804364775 -18.50836727866246
lowerback -6.503104239313498 3.602993630742851 -0.48211728927979175
upperback -13.441638471960633 4.3108472556774355 -0.07864481263654177
thorax -11.035607251506132 2.1118644380519243 0.6812775662342618
lowerneck -11.435132865303459 6.75723962996776 4.435925364083098
upperneck 18.191725754280842 7.225849870000838 7.2779641055094455
head 7.640760547554504 4.224212004872601 2.1607128338963824
rclavicle 9.085249028242407E-16 -1.8252229252732756E-15
rhumerus 7.9972353375254315 -22.474828475503326 -48.493474523801964
rradius 27.907185140814704
rwrist 21.326285385694376
rhand 0.8570753779044225 7.343384247627556
rfingers 7.125020000000029
rthumb 26.474285853587595 -19.705590470314505
lclavicle 1.4190176645769348E-15 -9.288815437836437E-16
lhumerus -10.498734481724728 3.9441933411191976 51.243267413966265
lradius 35.57814917166028
lwrist -7.884326648414179
lhand -1.7654034515284316 23.34224715065422
lfingers 7.125019999999976
lthumb 23.514873885625327 50.517996534039646
rfemur 58.979572195314795 -81.98248224235607 -56.16855539459725
rtibia 40.21335140304085
rfoot -18.428109080144097 -17.98112371409273
rtoes 21.639350516870575
lfemur -44.78495099941821 8.237500484427244 -27.13169746923261
ltibia 44.064849331054326
lfoot -22.786824657255366 14.930858007684703
ltoes 10.897026475504155
190
root 0 0 0 45.00616453511229 -47.124588602987046 -18.505491402293
lowerback -6.499714493912528 3.6026170260060795 -0.48247317940126344
upperback -13.439901493455306 4.31015643740032 -0.07887477678572319
thorax -11.035511167403545 2.1115624147386995 0.681114721870665
lowerneck -11.435940697924316 6.756931572611328 4.435557144888985
upperneck 18.190349743424424 7.225499523701766 7.277535899953527
head 7.6403652153389405 4.224015040267955 2.1606118490630095
rclavicle 9.089266012110594E-16 -1.825559849439527E-15
rhumerus 7.978863356495001 -22.473847117996442 -48.498742123809436
rradius 27.91025918087058
rwrist 21.316083607991146
rhand 0.8485491215266148 7.351334607421036
rfingers 7.125020000000029
rthumb 26.466115163763742 -19.698970621221587
lclavicle 1.422306157214433E-15 -9.269412340980129E-16
lhumerus -10.509431689260465 3.935150803997391 51.2670864205348
lradius 35.58253792806612
lwrist -7.869785959936742
lhand -1.7694971928549244 23.34024639157378
lfingers 7.125019999999976
lthumb 23.509822406134855 50.516264544981226
rfemur 58.91731401611061 -81.91408636782288 -56.10164902333712
rtibia 40.21383095759318
rfoot -18.425926921320816 -17.973042863271314
rtoes 21.63375147486251
lfemur -44.76429464436891 8.230195279513271 -27.128762599868793
ltibia 44.05943598967768
lfoot -22.77891080505377 14.920759869828506
ltoes 10.887522655407302
191
root 0 0 0 23.60874535961059 -12.997055163221157 -7.776885977619278
lowerback -4.36040218203073 0.6338420135744741 -1.42982170569642
upperback -8.758277286522775 0.8601468678303723 2.631264035712371
thorax -6.852398134088556 0.6158712943616382 3.7319398579866223
lowerneck -10.818085277192374 -0.8403732019507382 -0.6180015160385196
upperneck 24.650647701534833 -1.8502797634472872 3.0555545612452404
head 9.959104295893981 -0.6544897661232846 0.7891631915900055
rclavicle 3.921268223431145E-16 -1.2287259054812106E-15
rhumerus 7.035896142672197 -21.79226816706592 -55.11268686659034
rradius 28.11102733620909
rwrist 20.80489962887345
rhand -2.8851400781001555 10.196552710314446
rfingers 7.125019999999971
rthumb 22.69698048478202 -17.43132106404422
lclavicle 2.6166587595543335E-16 -1.1686324527748815E-15
lhumerus -10.564495074504885 6.105200892194019 48.10870752271535
lradius 33.34310261715147
lwrist -10.834484637851844
lhand -3.3785051837037887 23.973436399768243
lfingers 7.125019999999964
lthumb 22.124281257424272 51.48642811876988
rfemur 75.9828134142227 -100.66662147056036 -74.82365347843347
rtibia 40.00822150507777
rfoot -19.945467007070594 -20.11463701387443
rtoes 23.582549816858055
lfemur -51.261017259818274 10.184003228906072 -29.518773063071016
ltibia 46.228506208431796
lfoot -22.7014904459199 17.92401827492401
ltoes 12.344888348373274
192
root 0 0 0 38.451543149470524 -36.27791899402031 -15.092267445508668
lowerback -5.982231838199402 2.6075913233048484 -0.8583673285332442
upperback -12.138775688926067 3.1486710332288395 0.837303350662987
thorax -9.821136174951462 1.6154101754398433 1.7544896050675918
lowerneck -11.077799839212215 4.385459490832463 2.8110593137070556
upperneck 20.15611761112789 4.39429975360879 6.030603095173662
head 8.323779757450682 2.7026881393094278 1.75676614336738
rclavicle 1.0683419990906577E-15 -1.7897222109764207E-15
rhumerus 6.5545434884789575 -22.549048359445813 -48.66186198800837
rradius 28.261457359680463
rwrist 20.59634511875589
rhand 0.06347038127115034 8.055080101649548
rfingers 7.125020000000021
rthumb 25.69536057196634 -19.099226303916055
lclavicle 1.0904320575671767E-15 -9.822772569417324E-16
lhumerus -10.337275731803027 4.663117901131761 50.046419311159205
lradius 34.88497159501673
lwrist -8.903286488512293
lhand -2.1741247838566924 23.56480280139505
lfingers 7.125019999999975
lthumb 23.15877922098831 50.83147738633082
rfemur 61.85311401076028 -85.28426063055986 -59.400863860646524
rtibia 40.22680436751538
rfoot -18.72115824080269 -18.35654844371523
rtoes 22.098084867012556
lfemur -45.80947141465116 8.537999394251646 -27.545504396817357
ltibia 44.39078635804585
lfoot -22.78032575362112 15.417172077167788
ltoes 11.099618554367012
193
root 0 0 0 42.0182702396297 -42.34188186944087 -16.968423826279317
lowerback -6.233724545124159 3.1532417155165327 -0.6563532268467358
upperback -12.856174673191163 3.7840300231713737 0.32494612687926905
thorax -10.507221714514879 1.8870634593638638 1.1495090852467016
lowerneck -11.278606424366625 5.715370591578138 3.7169433682412154
upperneck 19.038074013185515 5.983668829158823 6.739366748781595
head 7.935735101003898 3.5569349573752724 1.986027601673358
rclavicle 9.240447831598378E-16 -1.7740175392456329E-15
rhumerus 7.063395132647958 -22.466441710726812 -49.1313017611272
rradius 28.135312649195928
rwrist 20.8341071985854
rhand 0.09697412126896587 7.991865680560159
rfingers 7.12502000000002
rthumb 25.71902671683909 -19.168608471668577
lclavicle 1.1808217835394564E-15 -1.0079162618904844E-15
lhumerus -10.284865663386684 4.413334992167617 50.331003936702714
lradius 35.1993504057431
lwrist -8.574534121016997
lhand -1.8915447848556646 23.458728027302225
lfingers 7.125019999999978
lthumb 23.437526260272733 50.67245858135435
rfemur 63.022588162508995 -86.50225044837707 -60.66499372194946
rtibia 40.161158108426086
rfoot -18.84870389757072 -18.508076232095732
rtoes 22.152400080231505
lfemur -46.33809231155928 8.701632286346056 -27.740568974231813
ltibia 44.608010283719935
lfoot -22.671262240947815 15.637485624531582
ltoes 11.19825163662437
194
root 0 0 0 43.77565271870394 -45.264226763845656 -17.867992271346687
lowerback -6.382847203442499 3.4168427923688647 -0.5669374545500536
upperback -13.213629226073191 4.0898852826618555 0.07845940964821074
thorax -10.83393494715553 2.0183275676503785 0.8652381193119509
lowerneck -11.36541957686875 6.356480268407952 4.155446915160521
upperneck 18.518849366758133 6.747427421151583 7.07625736085614
head 7.7539751106351105 3.9674993930221767 2.095481655499441
rclavicle 8.282599304077047E-16 -1.7218166466391733E-15
rhumerus 7.854798307363094 -22.354693504906425 -49.7234977451817
rradius 28.000278929716302
rwrist 21.220771845301783
rhand 0.11090248650936907 7.919871278936501
rfingers 7.12502000000002
rthumb 25.72080613915965 -19.245087091516705
lclavicle 1.2525859218562452E-15 -1.0109195904099078E-15
lhumerus -10.18030995796934 4.342601470275835 50.35987672801088
lradius 35.322025044766384
lwrist -8.48532726607722
lhand -1.749073066019184 23.428410627405245
lfingers 7.12501999999998
lthumb 23.574950610628182 50.61625506174365
rfemur 63.85223931342209 -87.39307436079572 -61.51531175706573
rtibia 40.14715401586874
rfoot -18.85753711459406 -18.61954510205377
rtoes 22.19078444927768
lfemur -46.63764342064604 8.795088630533568 -27.832963881021744
ltibia 44.698388643871816
lfoot -22.669758180562013 15.771918239813019
ltoes 11.273278798539508
